<?xml version="1.0" encoding="UTF-8" standalone="no"?><!DOCTYPE svg PUBLIC "-//W3C//DTD SVG 1.1//EN" "http://www.w3.org/Graphics/SVG/1.1/DTD/svg11.dtd"><svg width="100%" height="100%" viewBox="0 0 149 203" version="1.1" xmlns="http://www.w3.org/2000/svg" xmlns:xlink="http://www.w3.org/1999/xlink" xml:space="preserve" xmlns:serif="http://www.serif.com/" style="fill-rule:evenodd;clip-rule:evenodd;stroke-linejoin:round;stroke-miterlimit:1.41421;"><g id="Logo"><g><path d="M26.764,175.077c-6.209,0.825 -9.746,2.043 -9.746,6.798c0,3.379 2.122,4.755 5.62,4.755c1.532,0 3.104,-0.315 4.126,-0.864l0,-10.689Zm-4.402,12.849c-5.186,0 -7.426,-2.475 -7.426,-6.051c0,-5.659 5.187,-7.388 11.828,-8.056l0,-1.454c0,-3.811 -2.24,-4.872 -5.148,-4.872c-2.043,0 -3.812,0.747 -4.912,1.375l-0.59,-1.375c1.101,-0.629 3.301,-1.533 5.738,-1.533c3.537,0 6.916,1.533 6.916,6.444l0,14.029c-1.532,0.905 -3.772,1.493 -6.406,1.493Z" style="fill:#000000;fill-rule:nonzero;"/><path d="M43.346,167.807c-1.847,-0.511 -4.048,-0.275 -5.227,0.589l0,19.138l-2.122,0l0,-20.081c1.926,-0.982 3.34,-1.493 7.977,-1.493l-0.628,1.847Z" style="fill:#000000;fill-rule:nonzero;"/><path d="M60.478,187.534l-9.038,-11.042l-0.079,0l0,11.042l-2.043,0l0,-30.848l2.043,0l0,19.727l0.079,0l8.331,-10.06l2.357,0l-8.724,10.099l9.549,11.082l-2.475,0Z" style="fill:#000000;fill-rule:nonzero;"/><path d="M73.405,187.652c-3.576,0 -4.716,-2.672 -4.716,-4.951l0,-15.09l-2.475,0l0,-1.258l2.475,0l0,-5.069l2.123,-0.786l0,5.855l3.929,0l0,1.218l-3.929,0l0,15.247c0,1.729 0.825,3.341 3.065,3.341c0.235,0 0.589,0 0.864,-0.079l0,1.375c-0.353,0.118 -0.785,0.197 -1.336,0.197Z" style="fill:#000000;fill-rule:nonzero;"/><path d="M87.59,167.532c-3.38,0 -6.012,2.593 -6.012,9.038l11.553,-1.768c0,-5.305 -2.123,-7.27 -5.541,-7.27Zm-5.973,10.335c0.314,5.619 2.907,8.409 7.112,8.409c2.358,0 4.009,-0.629 5.069,-1.257l0.669,1.533c-1.14,0.707 -3.262,1.374 -5.777,1.374c-5.109,0 -9.077,-3.104 -9.077,-11.041c0,-7.467 3.576,-10.925 8.016,-10.925c4.558,0 7.584,2.869 7.584,9.903l-13.596,2.004Z" style="fill:#000000;fill-rule:nonzero;"/><path d="M112.974,187.534l-9.039,-11.042l-0.079,0l0,11.042l-2.043,0l0,-30.848l2.043,0l0,19.727l0.079,0l8.331,-10.06l2.358,0l-8.724,10.099l9.549,11.082l-2.475,0Z" style="fill:#000000;fill-rule:nonzero;"/><path d="M131.441,187.534l-9.038,-11.042l-0.079,0l0,11.042l-2.043,0l0,-30.848l2.043,0l0,19.727l0.079,0l8.331,-10.06l2.358,0l-8.724,10.099l9.549,11.082l-2.476,0Z" style="fill:#000000;fill-rule:nonzero;"/></g><path d="M102.332,101.045c0,-7.084 -0.015,-17.648 -0.022,-25.427c-0.005,-2.289 -0.005,-4.348 -0.005,-5.992c6.21,-1.354 12.093,-4.159 17.123,-8.273c3.36,-2.747 6.343,-6.076 8.769,-9.963l-14.101,-8.805c-2.98,4.77 -7.358,8.126 -12.271,9.901l-0.107,-3.55c-3.241,-19.298 -20.012,-34.006 -40.233,-34c-5.526,0 -10.787,1.112 -15.595,3.103l2.877,5.758l4.596,9.196c2.54,-0.909 5.266,-1.43 8.122,-1.43c13.354,0 24.184,10.824 24.184,24.186c0,5.821 0.009,10.687 0.017,14.737c-2.404,-1.768 -5.028,-3.295 -7.86,-4.53c-0.915,-0.402 -1.848,-0.774 -2.805,-1.11c-7.357,-2.585 -14.955,-2.937 -22.062,-1.415c-10.136,2.175 -19.259,8.172 -25.232,16.961c-1.937,2.857 -3.548,6.003 -4.749,9.412c-4.396,12.507 -2.345,25.712 4.417,35.995l0.017,0.015c3.496,5.719 7.277,9.952 14.084,13.388l-0.064,0.179c5.834,3.201 12.53,5.03 19.652,5.03c6.239,0 12.139,-1.409 17.428,-3.906c3.018,-1.428 5.839,-3.205 8.397,-5.292c0.46,-0.375 0.912,-0.76 1.354,-1.154c-0.862,-0.891 -1.696,-1.811 -2.476,-2.777c-2.766,-3.42 -4.968,-7.313 -6.521,-11.521c-0.023,0.025 -0.046,0.049 -0.069,0.07c-4.42,4.828 -10.754,7.873 -17.813,7.873c-2.803,0 -5.484,-0.5 -7.986,-1.376c-9.43,-3.302 -16.202,-12.256 -16.202,-22.811c0,-3.723 0.862,-7.234 2.367,-10.383c0.038,-0.082 0.078,-0.163 0.116,-0.244c0.179,-0.368 0.38,-0.725 0.58,-1.085c0.079,-0.144 0.147,-0.294 0.233,-0.438c0.205,-0.358 0.418,-0.709 0.64,-1.057c0.127,-0.189 0.254,-0.383 0.384,-0.57c6.02,-8.845 17.421,-12.924 27.99,-9.207c10.028,3.534 16.409,12.724 16.298,22.797l-0.004,0.334c0.549,8.696 3.824,16.651 8.974,23.025c5.914,7.315 14.307,12.532 23.904,14.399c2.538,0.495 5.156,0.769 7.839,0.769l0,-16.626c-13.358,0 -24.181,-10.829 -24.185,-24.186Z" style="fill:#ea0a8b;fill-rule:nonzero;"/></g></svg>